<?xml version="1.0" encoding="utf-8"?>
<!-- Generator: Adobe Illustrator 19.0.0, SVG Export Plug-In . SVG Version: 6.00 Build 0)  -->
<svg version="1.1" id="图层_1" xmlns="http://www.w3.org/2000/svg" xmlns:xlink="http://www.w3.org/1999/xlink" x="0px" y="0px"
	 viewBox="-148 359 315 75" style="enable-background:new -148 359 315 75;" xml:space="preserve">
<style type="text/css">
	.st0{fill:#C51E68;}
</style>
<g transform="translate(0.000000,75.000000) scale(0.100000,-0.100000)">
	<path class="st0" d="M-1365-2859c-51-23-91-70-106-123c-6-23-9-92-7-157c3-133,20-181,77-218c33-22,42-23,266-23c127,0,388-3,578-7
		l347-6v-83c0-74,2-83,20-89c16-5,41,13,118,84l97,91h750c706,0,752,2,790,19c81,37,105,94,105,250c0,122-10,168-47,211
		c-59,70,69,65-1518,67C-1256-2841-1327-2842-1365-2859z"/>
</g>
</svg>
